<mxfile host="app.diagrams.net" modified="2020-12-12T15:24:46.822Z" agent="5.0 (Windows NT 10.0; Win64; x64) AppleWebKit/537.36 (KHTML, like Gecko) Chrome/87.0.4280.88 Safari/537.36" etag="wYN8mgZnQTb6b_7mKfC9" version="14.0.1" type="github">
  <diagram id="ffowCJfu2W1DnHXyGsZl" name="Page-1">
    <mxGraphModel dx="1422" dy="762" grid="0" gridSize="10" guides="1" tooltips="1" connect="1" arrows="1" fold="1" page="1" pageScale="1" pageWidth="1169" pageHeight="1654" math="0" shadow="0">
      <root>
        <mxCell id="0" />
        <mxCell id="1" parent="0" />
        <mxCell id="ZTryJFxjSs6o1tjVrnJ4-10" value="HTTP" style="edgeStyle=orthogonalEdgeStyle;rounded=0;orthogonalLoop=1;jettySize=auto;html=1;exitX=1;exitY=0.5;exitDx=0;exitDy=0;entryX=0;entryY=0.5;entryDx=0;entryDy=0;" edge="1" parent="1" source="ZTryJFxjSs6o1tjVrnJ4-2" target="ZTryJFxjSs6o1tjVrnJ4-3">
          <mxGeometry relative="1" as="geometry" />
        </mxCell>
        <mxCell id="ZTryJFxjSs6o1tjVrnJ4-2" value="上传工具" style="rounded=0;whiteSpace=wrap;html=1;fillColor=#dae8fc;strokeColor=#6c8ebf;" vertex="1" parent="1">
          <mxGeometry x="144" y="120" width="120" height="60" as="geometry" />
        </mxCell>
        <mxCell id="ZTryJFxjSs6o1tjVrnJ4-12" style="edgeStyle=orthogonalEdgeStyle;rounded=0;orthogonalLoop=1;jettySize=auto;html=1;exitX=0.25;exitY=1;exitDx=0;exitDy=0;" edge="1" parent="1" source="ZTryJFxjSs6o1tjVrnJ4-3" target="ZTryJFxjSs6o1tjVrnJ4-8">
          <mxGeometry relative="1" as="geometry" />
        </mxCell>
        <mxCell id="ZTryJFxjSs6o1tjVrnJ4-13" style="edgeStyle=orthogonalEdgeStyle;rounded=0;orthogonalLoop=1;jettySize=auto;html=1;exitX=0.75;exitY=1;exitDx=0;exitDy=0;" edge="1" parent="1" source="ZTryJFxjSs6o1tjVrnJ4-3" target="ZTryJFxjSs6o1tjVrnJ4-4">
          <mxGeometry relative="1" as="geometry" />
        </mxCell>
        <mxCell id="ZTryJFxjSs6o1tjVrnJ4-3" value="OpenAPI" style="rounded=0;whiteSpace=wrap;html=1;fillColor=#dae8fc;strokeColor=#6c8ebf;" vertex="1" parent="1">
          <mxGeometry x="437" y="120" width="188" height="60" as="geometry" />
        </mxCell>
        <mxCell id="ZTryJFxjSs6o1tjVrnJ4-4" value="DFS" style="aspect=fixed;html=1;points=[];align=center;image;fontSize=12;image=img/lib/azure2/general/Files.svg;" vertex="1" parent="1">
          <mxGeometry x="546" y="230" width="64" height="70" as="geometry" />
        </mxCell>
        <mxCell id="ZTryJFxjSs6o1tjVrnJ4-11" value="" style="edgeStyle=orthogonalEdgeStyle;rounded=0;orthogonalLoop=1;jettySize=auto;html=1;" edge="1" parent="1" source="ZTryJFxjSs6o1tjVrnJ4-7" target="ZTryJFxjSs6o1tjVrnJ4-2">
          <mxGeometry relative="1" as="geometry" />
        </mxCell>
        <mxCell id="ZTryJFxjSs6o1tjVrnJ4-7" value="客户端文件系统" style="aspect=fixed;html=1;points=[];align=center;image;fontSize=12;image=img/lib/azure2/general/Files.svg;" vertex="1" parent="1">
          <mxGeometry x="172" y="230" width="64" height="70" as="geometry" />
        </mxCell>
        <mxCell id="ZTryJFxjSs6o1tjVrnJ4-8" value="ContentShare" style="aspect=fixed;html=1;points=[];align=center;image;fontSize=12;image=img/lib/azure2/databases/SQL_Server.svg;" vertex="1" parent="1">
          <mxGeometry x="450" y="232" width="68" height="68" as="geometry" />
        </mxCell>
        <mxCell id="ZTryJFxjSs6o1tjVrnJ4-14" value="" style="shape=umlLifeline;participant=umlActor;perimeter=lifelinePerimeter;whiteSpace=wrap;html=1;container=1;collapsible=0;recursiveResize=0;verticalAlign=top;spacingTop=36;outlineConnect=0;" vertex="1" parent="1">
          <mxGeometry x="144" y="454" width="20" height="459" as="geometry" />
        </mxCell>
        <mxCell id="ZTryJFxjSs6o1tjVrnJ4-15" value="上传工具" style="shape=umlLifeline;perimeter=lifelinePerimeter;whiteSpace=wrap;html=1;container=1;collapsible=0;recursiveResize=0;outlineConnect=0;fillColor=#d5e8d4;strokeColor=#82b366;" vertex="1" parent="1">
          <mxGeometry x="267" y="454" width="100" height="439" as="geometry" />
        </mxCell>
        <mxCell id="ZTryJFxjSs6o1tjVrnJ4-17" value="" style="html=1;points=[];perimeter=orthogonalPerimeter;" vertex="1" parent="ZTryJFxjSs6o1tjVrnJ4-15">
          <mxGeometry x="45" y="63" width="10" height="376" as="geometry" />
        </mxCell>
        <mxCell id="ZTryJFxjSs6o1tjVrnJ4-27" value="" style="html=1;points=[];perimeter=orthogonalPerimeter;" vertex="1" parent="ZTryJFxjSs6o1tjVrnJ4-15">
          <mxGeometry x="52" y="265" width="10" height="14" as="geometry" />
        </mxCell>
        <mxCell id="ZTryJFxjSs6o1tjVrnJ4-28" value="把文件Base64编码" style="edgeStyle=orthogonalEdgeStyle;html=1;align=left;spacingLeft=2;endArrow=block;rounded=0;entryX=1;entryY=0;" edge="1" target="ZTryJFxjSs6o1tjVrnJ4-27" parent="ZTryJFxjSs6o1tjVrnJ4-15">
          <mxGeometry relative="1" as="geometry">
            <mxPoint x="57" y="245" as="sourcePoint" />
            <Array as="points">
              <mxPoint x="82" y="245" />
            </Array>
          </mxGeometry>
        </mxCell>
        <mxCell id="ZTryJFxjSs6o1tjVrnJ4-16" value="OpenAPI" style="shape=umlLifeline;perimeter=lifelinePerimeter;whiteSpace=wrap;html=1;container=1;collapsible=0;recursiveResize=0;outlineConnect=0;fillColor=#d5e8d4;strokeColor=#82b366;" vertex="1" parent="1">
          <mxGeometry x="530" y="454" width="100" height="455" as="geometry" />
        </mxCell>
        <mxCell id="ZTryJFxjSs6o1tjVrnJ4-20" value="" style="html=1;points=[];perimeter=orthogonalPerimeter;" vertex="1" parent="ZTryJFxjSs6o1tjVrnJ4-16">
          <mxGeometry x="47.5" y="94" width="10" height="132" as="geometry" />
        </mxCell>
        <mxCell id="ZTryJFxjSs6o1tjVrnJ4-23" value="" style="html=1;points=[];perimeter=orthogonalPerimeter;" vertex="1" parent="ZTryJFxjSs6o1tjVrnJ4-16">
          <mxGeometry x="55" y="132" width="10" height="18" as="geometry" />
        </mxCell>
        <mxCell id="ZTryJFxjSs6o1tjVrnJ4-24" value="查ContentShare&lt;br&gt;找出所有与要上传文件重复的文件" style="edgeStyle=orthogonalEdgeStyle;html=1;align=left;spacingLeft=2;endArrow=block;rounded=0;entryX=1;entryY=0;" edge="1" target="ZTryJFxjSs6o1tjVrnJ4-23" parent="ZTryJFxjSs6o1tjVrnJ4-16">
          <mxGeometry relative="1" as="geometry">
            <mxPoint x="60" y="112" as="sourcePoint" />
            <Array as="points">
              <mxPoint x="85" y="112" />
            </Array>
          </mxGeometry>
        </mxCell>
        <mxCell id="ZTryJFxjSs6o1tjVrnJ4-25" value="" style="html=1;points=[];perimeter=orthogonalPerimeter;" vertex="1" parent="ZTryJFxjSs6o1tjVrnJ4-16">
          <mxGeometry x="52" y="188" width="10" height="17" as="geometry" />
        </mxCell>
        <mxCell id="ZTryJFxjSs6o1tjVrnJ4-26" value="在DB、DFS中&lt;br&gt;删掉刚查出来的重复文件" style="edgeStyle=orthogonalEdgeStyle;html=1;align=left;spacingLeft=2;endArrow=block;rounded=0;entryX=1;entryY=0;" edge="1" target="ZTryJFxjSs6o1tjVrnJ4-25" parent="ZTryJFxjSs6o1tjVrnJ4-16">
          <mxGeometry relative="1" as="geometry">
            <mxPoint x="57" y="168" as="sourcePoint" />
            <Array as="points">
              <mxPoint x="82" y="168" />
            </Array>
          </mxGeometry>
        </mxCell>
        <mxCell id="ZTryJFxjSs6o1tjVrnJ4-29" value="" style="html=1;points=[];perimeter=orthogonalPerimeter;" vertex="1" parent="ZTryJFxjSs6o1tjVrnJ4-16">
          <mxGeometry x="45" y="303" width="10" height="80" as="geometry" />
        </mxCell>
        <mxCell id="ZTryJFxjSs6o1tjVrnJ4-32" value="" style="html=1;points=[];perimeter=orthogonalPerimeter;" vertex="1" parent="ZTryJFxjSs6o1tjVrnJ4-16">
          <mxGeometry x="50" y="343" width="10" height="21" as="geometry" />
        </mxCell>
        <mxCell id="ZTryJFxjSs6o1tjVrnJ4-33" value="存入DB、DFS" style="edgeStyle=orthogonalEdgeStyle;html=1;align=left;spacingLeft=2;endArrow=block;rounded=0;entryX=1;entryY=0;" edge="1" target="ZTryJFxjSs6o1tjVrnJ4-32" parent="ZTryJFxjSs6o1tjVrnJ4-16">
          <mxGeometry relative="1" as="geometry">
            <mxPoint x="55" y="313" as="sourcePoint" />
            <Array as="points">
              <mxPoint x="80" y="313" />
            </Array>
          </mxGeometry>
        </mxCell>
        <mxCell id="ZTryJFxjSs6o1tjVrnJ4-18" value="选择文件、上传" style="html=1;verticalAlign=bottom;endArrow=block;entryX=0;entryY=0;" edge="1" target="ZTryJFxjSs6o1tjVrnJ4-17" parent="1" source="ZTryJFxjSs6o1tjVrnJ4-14">
          <mxGeometry relative="1" as="geometry">
            <mxPoint x="242" y="517" as="sourcePoint" />
          </mxGeometry>
        </mxCell>
        <mxCell id="ZTryJFxjSs6o1tjVrnJ4-19" value="return" style="html=1;verticalAlign=bottom;endArrow=open;dashed=1;endSize=8;exitX=0;exitY=0.95;" edge="1" source="ZTryJFxjSs6o1tjVrnJ4-17" parent="1" target="ZTryJFxjSs6o1tjVrnJ4-14">
          <mxGeometry relative="1" as="geometry">
            <mxPoint x="242" y="593" as="targetPoint" />
          </mxGeometry>
        </mxCell>
        <mxCell id="ZTryJFxjSs6o1tjVrnJ4-21" value="DeleteCustomSingleOrBatch：FIleNames" style="html=1;verticalAlign=bottom;endArrow=block;entryX=0;entryY=0;" edge="1" target="ZTryJFxjSs6o1tjVrnJ4-20" parent="1">
          <mxGeometry relative="1" as="geometry">
            <mxPoint x="319" y="548" as="sourcePoint" />
          </mxGeometry>
        </mxCell>
        <mxCell id="ZTryJFxjSs6o1tjVrnJ4-22" value="return" style="html=1;verticalAlign=bottom;endArrow=open;dashed=1;endSize=8;exitX=0;exitY=0.95;" edge="1" source="ZTryJFxjSs6o1tjVrnJ4-20" parent="1" target="ZTryJFxjSs6o1tjVrnJ4-15">
          <mxGeometry relative="1" as="geometry">
            <mxPoint x="319" y="624" as="targetPoint" />
          </mxGeometry>
        </mxCell>
        <mxCell id="ZTryJFxjSs6o1tjVrnJ4-30" value="uploadfileforopenapi：10个一组的文件" style="html=1;verticalAlign=bottom;endArrow=block;entryX=0;entryY=0;" edge="1" target="ZTryJFxjSs6o1tjVrnJ4-29" parent="1" source="ZTryJFxjSs6o1tjVrnJ4-15">
          <mxGeometry relative="1" as="geometry">
            <mxPoint x="508" y="738" as="sourcePoint" />
          </mxGeometry>
        </mxCell>
        <mxCell id="ZTryJFxjSs6o1tjVrnJ4-31" value="return" style="html=1;verticalAlign=bottom;endArrow=open;dashed=1;endSize=8;exitX=0;exitY=0.95;" edge="1" source="ZTryJFxjSs6o1tjVrnJ4-29" parent="1" target="ZTryJFxjSs6o1tjVrnJ4-15">
          <mxGeometry relative="1" as="geometry">
            <mxPoint x="508" y="814" as="targetPoint" />
          </mxGeometry>
        </mxCell>
      </root>
    </mxGraphModel>
  </diagram>
</mxfile>
